<svg width="35" height="35" viewBox="0 0 35 35" fill="none" xmlns="http://www.w3.org/2000/svg">
<path d="M7.41125 7.79275C5.18007 10.1085 3.81412 13.1218 3.543 16.326C3.27187 19.5303 4.1121 22.7302 5.92245 25.388C7.7328 28.0457 10.4029 29.9992 13.4839 30.9201C16.565 31.841 19.8691 31.6731 22.841 30.4447C23.0422 29.1322 22.6012 27.8722 22.421 27.4312C22.0185 26.4512 20.692 24.7765 18.4783 22.4543C17.8867 21.833 17.9253 21.3552 18.137 19.9395L18.1597 19.7803C18.3032 18.8108 18.5448 18.2367 21.8085 17.7188C23.4675 17.4562 23.9032 18.1178 24.507 19.0365L24.71 19.3375C25.284 20.1775 25.7093 20.37 26.3515 20.6605C26.6403 20.7917 26.999 20.958 27.4802 21.2292C28.6212 21.882 28.6213 22.6187 28.6213 24.2323V24.416C28.6213 25.1003 28.5548 25.7022 28.4497 26.2255C29.7926 24.5401 30.7284 22.5675 31.1843 20.4613C31.6401 18.3551 31.6037 16.1721 31.0779 14.0823C30.5521 11.9925 29.5511 10.0522 28.1528 8.41249C26.7545 6.7728 24.9966 5.47795 23.016 4.62875C22.0483 5.2815 20.72 6.20725 20.2563 6.8425C20.02 7.16625 19.684 8.8235 18.5938 8.96C18.3102 8.995 17.927 8.9705 17.521 8.94425C16.4325 8.87425 14.945 8.778 14.469 10.0712C14.1662 10.8903 14.1137 13.1162 15.092 14.2712C15.2495 14.455 15.2793 14.7962 15.1725 15.1795C15.0325 15.6817 14.7508 15.988 14.6615 16.051C14.4935 15.953 14.1575 15.5627 13.9282 15.2985C13.3805 14.6597 12.6945 13.8635 11.809 13.6185C11.487 13.5292 11.1335 13.4558 10.7887 13.3823C9.828 13.181 8.74125 12.9518 8.4875 12.4128C8.302 12.0173 8.30375 11.473 8.30375 10.899C8.30375 10.1692 8.30375 9.345 7.94675 8.54525C7.82264 8.25984 7.64024 8.00352 7.41125 7.79275ZM17.5 35C7.83475 35 0 27.1652 0 17.5C0 7.83475 7.83475 0 17.5 0C27.1652 0 35 7.83475 35 17.5C35 27.1652 27.1652 35 17.5 35Z" fill="url(#paint0_linear)"/>
<defs>
<linearGradient id="paint0_linear" x1="0" y1="17.5" x2="35" y2="17.5" gradientUnits="userSpaceOnUse">
<stop stop-color="#F2CD4B"/>
<stop offset="0.229167" stop-color="#F174BF"/>
<stop offset="0.7" stop-color="#4C54FF"/>
<stop offset="1" stop-color="#6CD3FF"/>
</linearGradient>
</defs>
</svg>
