<svg width="24" height="24" viewBox="0 0 24 24" fill="none" xmlns="http://www.w3.org/2000/svg">
  <path d="M15.6666 2.4H3.44444V21.6H20.5555V7.2H15.6666V2.4ZM1 1.1904C1 0.5328 1.54633 0 2.221 0H16.8889L23 6V22.7916C23.0011 22.9492 22.9706 23.1054 22.9102 23.2515C22.8498 23.3975 22.7607 23.5304 22.648 23.6426C22.5353 23.7548 22.4012 23.8441 22.2534 23.9054C22.1055 23.9668 21.9468 23.9989 21.7863 24H2.21367C1.89268 23.9978 1.58546 23.8717 1.35838 23.649C1.13129 23.4263 1.00256 23.1247 1 22.8096V1.1904ZM13.2222 12V16.8H10.7778V12H7.1111L12 7.2L16.8889 12H13.2222Z" fill="#B9BDC4"/>
</svg>
