<svg width="24" height="24" viewBox="0 0 24 24" fill="none" xmlns="http://www.w3.org/2000/svg">
<path d="M5.33333 21.3333V13.3333H18.6667V21.3333H21.3333V6.43733L17.5627 2.66667H2.66667V21.3333H5.33333ZM1.33333 0H18.6667L24 5.33333V22.6667C24 23.0203 23.8595 23.3594 23.6095 23.6095C23.3594 23.8595 23.0203 24 22.6667 24H1.33333C0.979711 24 0.640573 23.8595 0.390524 23.6095C0.140476 23.3594 0 23.0203 0 22.6667V1.33333C0 0.979711 0.140476 0.640573 0.390524 0.390524C0.640573 0.140476 0.979711 0 1.33333 0ZM8 16V21.3333H16V16H8Z" fill="#B9BDC4"/>
</svg>
